<?xml version="1.0" standalone="no"?>
<!DOCTYPE svg PUBLIC "-//W3C//DTD SVG 20010904//EN"
 "http://www.w3.org/TR/2001/REC-SVG-20010904/DTD/svg10.dtd">
<svg version="1.0" xmlns="http://www.w3.org/2000/svg"
 width="460.000000pt" height="181.000000pt" viewBox="0 0 460.000000 181.000000"
 preserveAspectRatio="xMidYMid meet">

<g transform="translate(0.000000,181.000000) scale(0.100000,-0.100000)"
fill="#000000" stroke="none">
<path d="M735 1723 c-44 -7 -90 -46 -116 -100 -20 -42 -24 -68 -30 -238 -4
-104 -8 -328 -8 -497 l-1 -308 70 0 70 0 0 160 0 160 75 0 75 0 0 -160 0 -160
65 0 65 0 0 424 c0 240 -5 459 -11 503 -13 103 -48 176 -94 197 -38 18 -112
27 -160 19z m97 -134 c17 -22 21 -52 28 -190 5 -90 9 -212 10 -271 l0 -108
-75 0 -75 0 0 108 c1 176 18 449 30 472 15 29 57 23 82 -11z"/>
<path d="M3775 1721 c-53 -9 -79 -25 -110 -65 -52 -68 -58 -321 -10 -416 15
-30 54 -73 113 -123 50 -43 97 -92 105 -110 35 -77 28 -250 -12 -290 -17 -18
-23 -19 -50 -8 -36 16 -51 53 -51 132 0 72 -19 89 -97 89 -52 0 -52 0 -48 -27
2 -16 10 -68 16 -118 12 -97 32 -146 74 -185 25 -23 33 -25 121 -23 113 2 141
14 172 71 34 61 50 214 34 324 -15 100 -37 135 -147 230 -120 103 -120 102
-120 238 0 128 13 173 53 178 44 7 65 -31 77 -140 l6 -58 66 0 66 0 -5 75 c-6
91 -46 179 -93 206 -36 20 -106 29 -160 20z"/>
<path d="M150 1150 l0 -570 160 0 160 0 0 70 c0 38 -3 69 -7 69 -5 -1 -43 -1
-85 0 l-78 1 0 195 0 195 70 0 70 0 0 64 0 63 -32 1 c-18 0 -50 0 -70 1 l-38
1 0 185 0 185 85 0 85 0 0 53 0 54 -160 1 -160 1 0 -569z"/>
<path d="M1224 1701 c-75 -46 -96 -105 -97 -271 0 -160 13 -189 145 -311 55
-51 107 -108 114 -126 15 -34 19 -176 8 -232 -4 -18 -17 -39 -30 -47 -20 -13
-27 -14 -51 -2 -23 11 -30 23 -40 68 -6 30 -12 76 -12 103 l-1 47 -71 0 -71 0
7 -72 c15 -149 54 -246 111 -273 41 -19 150 -20 197 0 85 35 112 115 105 314
-5 145 -18 182 -90 248 -24 22 -69 63 -100 92 -77 72 -93 114 -85 230 8 109
18 138 52 147 46 11 85 -47 85 -129 0 -24 5 -48 12 -55 7 -7 38 -12 70 -12 67
0 66 -1 48 106 -15 84 -48 151 -86 174 -44 28 -175 28 -220 1z"/>
<path d="M1660 1150 l0 -570 165 0 165 0 0 70 0 70 -95 0 -95 0 0 194 0 194
31 6 c17 3 53 6 80 6 l49 0 0 55 0 55 -80 0 -80 0 0 190 0 190 95 0 95 0 0 55
0 55 -165 0 -165 0 0 -570z"/>
<path d="M2100 1149 l0 -569 65 0 65 0 0 239 0 238 78 7 c96 9 132 29 161 90
59 121 50 400 -16 503 -25 39 -70 50 -215 56 l-138 5 0 -569z m237 446 c33
-23 43 -76 42 -210 -2 -186 -11 -206 -93 -213 l-56 -4 0 221 0 221 43 0 c23 0
52 -7 64 -15z"/>
<path d="M2620 1150 l0 -570 160 0 160 0 0 70 0 70 -90 0 -90 0 0 195 0 195
75 0 75 0 0 65 0 65 -75 0 -75 0 0 185 0 185 90 0 90 0 0 55 0 55 -160 0 -160
0 0 -570z"/>
<path d="M3040 1150 l0 -570 75 0 75 0 1 203 c1 111 4 240 7 287 l7 85 29
-105 c91 -325 134 -454 152 -461 11 -4 40 -8 67 -8 l47 -1 -2 568 -3 567 -67
3 -68 3 0 -328 c0 -199 -4 -323 -9 -317 -5 5 -27 72 -49 149 -35 120 -56 201
-123 458 l-10 37 -64 0 -65 0 0 -570z"/>
<path d="M4160 1152 l0 -572 160 0 160 0 0 70 0 70 -90 0 -90 0 0 194 c0 221
-7 206 98 206 l52 0 0 55 0 55 -75 0 -75 0 0 190 0 190 90 0 90 0 0 50 0 50
-38 0 c-22 0 -94 3 -160 7 l-122 6 0 -571z"/>
<path d="M590 195 c0 -136 -2 -131 59 -119 40 8 40 30 0 39 -24 5 -29 11 -27
28 2 12 15 28 31 35 35 17 35 40 0 44 -38 4 -40 25 -4 45 39 23 39 39 0 47
-61 12 -59 17 -59 -119z"/>
<path d="M1185 209 c-9 -130 -2 -146 59 -135 44 8 47 32 6 41 -25 5 -30 11
-30 36 0 26 4 29 30 29 23 0 30 5 30 19 0 14 -8 21 -27 23 -42 5 -45 44 -4 53
40 9 40 31 0 39 -58 11 -56 13 -64 -105z"/>
<path d="M1987 313 c-4 -3 -7 -53 -7 -109 0 -114 9 -134 59 -134 52 0 66 30
66 139 0 79 -3 96 -15 96 -12 0 -16 -19 -20 -90 -6 -106 -14 -124 -41 -99 -16
14 -19 31 -19 98 0 78 -9 114 -23 99z"/>
<path d="M2190 204 c0 -127 14 -182 26 -106 4 23 10 42 15 42 5 0 20 -18 34
-40 41 -65 62 -46 28 25 -15 31 -15 40 -4 68 7 18 15 39 18 48 7 25 -38 67
-79 75 l-38 6 0 -118z m65 30 c0 -19 -5 -29 -15 -29 -16 0 -25 28 -16 51 10
25 31 10 31 -22z"/>
<path d="M3391 307 c-14 -14 -15 -223 -1 -232 6 -4 10 5 10 19 0 14 8 33 19
42 62 53 71 65 71 91 0 16 -7 38 -15 50 -19 27 -69 45 -84 30z m54 -77 c0 -43
-29 -55 -39 -16 -8 32 3 58 23 54 11 -2 16 -14 16 -38z"/>
<path d="M827 303 c-12 -20 -37 -125 -43 -178 -7 -59 -7 -60 13 -43 23 21 46
23 73 6 29 -18 34 -5 21 61 -25 126 -48 181 -64 154z m26 -133 c3 -13 0 -23
-9 -27 -21 -8 -26 1 -18 31 7 29 19 27 27 -4z"/>
<path d="M1011 286 c-28 -30 -21 -60 25 -114 42 -50 38 -76 -13 -70 -26 3 -33
1 -31 -11 2 -10 16 -17 40 -19 30 -3 40 1 53 21 18 28 9 61 -31 115 -30 38
-28 66 4 70 12 2 22 10 22 18 0 23 -44 16 -69 -10z"/>
<path d="M1506 257 c13 -31 30 -82 36 -114 16 -85 19 -92 28 -68 5 11 9 34 9
51 1 17 12 64 26 104 14 40 23 76 20 78 -8 8 -32 -18 -45 -48 -7 -17 -15 -30
-19 -30 -3 0 -15 17 -26 37 -11 21 -28 39 -37 41 -15 3 -14 -3 8 -51z"/>
<path d="M1755 287 c-24 -20 -27 -30 -29 -94 -1 -63 2 -74 24 -98 56 -60 140
-5 140 92 0 102 -72 155 -135 100z m77 -24 c22 -26 32 -90 18 -124 -23 -56
-84 -45 -96 16 -10 57 17 125 51 125 7 0 19 -8 27 -17z"/>
<path d="M2547 292 c-25 -27 -20 -61 13 -111 38 -55 38 -71 2 -71 -16 0 -32
-3 -35 -7 -12 -11 15 -33 40 -33 71 0 83 51 28 123 -43 56 -44 72 -4 86 17 6
28 15 24 21 -10 16 -51 12 -68 -8z"/>
<path d="M2716 295 c-8 -21 -8 -178 0 -199 12 -32 34 -17 34 23 0 32 4 41 22
47 27 8 48 -17 48 -58 0 -15 5 -28 10 -28 6 0 10 45 10 115 0 70 -4 115 -10
115 -5 0 -10 -17 -10 -37 0 -49 -12 -66 -41 -61 -20 2 -25 10 -29 47 -5 46
-23 64 -34 36z"/>
<path d="M2982 300 c-49 -20 -68 -129 -32 -187 23 -38 59 -50 100 -33 34 14
50 53 50 122 0 41 -5 54 -29 79 -31 30 -50 34 -89 19z m88 -93 c0 -46 -20 -96
-42 -103 -61 -19 -82 139 -24 179 15 10 66 -48 66 -76z"/>
<path d="M3197 303 c-11 -10 -8 -216 3 -233 7 -11 11 -4 16 29 6 35 13 47 41
63 49 29 56 85 15 131 -15 17 -62 23 -75 10z m61 -67 c4 -29 -14 -60 -29 -50
-11 6 -12 68 -2 78 13 13 28 -1 31 -28z"/>
<path d="M3686 279 c-14 -69 -1 -199 19 -199 8 0 15 22 20 58 l7 57 29 -57
c16 -31 33 -59 38 -62 15 -10 24 77 16 161 -8 89 -24 82 -25 -12 l-1 -60 -35
73 c-38 78 -58 90 -68 41z"/>
<path d="M3951 284 c-76 -63 -37 -221 52 -212 31 3 32 4 32 52 0 35 -5 52 -17
60 -24 15 -29 4 -15 -33 10 -27 9 -33 -3 -41 -25 -16 -50 25 -50 80 0 52 16
74 63 85 37 10 36 35 -2 35 -17 0 -42 -11 -60 -26z"/>
<path d="M3580 195 c0 -63 4 -105 10 -105 6 0 10 42 10 105 0 63 -4 105 -10
105 -6 0 -10 -42 -10 -105z"/>
</g>
</svg>
